<svg width="18" height="18" viewBox="0 0 18 18" fill="none" xmlns="http://www.w3.org/2000/svg">
<path opacity="0.4" d="M1.5 4.5C1.5 2.84315 2.84315 1.5 4.5 1.5H13.5C15.1569 1.5 16.5 2.84315 16.5 4.5V13.5C16.5 15.1569 15.1569 16.5 13.5 16.5H4.5C2.84315 16.5 1.5 15.1569 1.5 13.5V4.5Z" fill="#BC48D9"/>
<path d="M14.2957 8.91282L16.5 10.4999V13.4999C16.5 15.1567 15.1569 16.4999 13.5 16.4999H4.5C2.84315 16.4999 1.5 15.1567 1.5 13.4999V10.4999L3.70426 12.087C4.84965 12.9116 6.41499 12.8264 7.46406 11.8822L10.5359 9.11755C11.585 8.17337 13.1504 8.08814 14.2957 8.91282Z" fill="#BC48D9"/>
<circle cx="6.375" cy="6.375" r="1.875" fill="#BC48D9"/>
</svg>
